<svg xmlns="http://www.w3.org/2000/svg" width="46" height="54"><defs><clipPath id="A"><path d="M0 0h46v54H0z"/></clipPath></defs><g clip-path="url(#A)"><path d="M39.94 26.1c-.4-.58-.4-1.64 0-2.22l5.78-8.67c.5-.75.6-1.56.25-2.2C45.62 12.37 44.9 12 44 12H32c-.55 0-1 .45-1 1s.45 1 1 1h12c.05 0 .1 0 .12.01l-.06.1-5.78 8.67c-.83 1.25-.83 3.2 0 4.44l5.78 8.67c.02.04.04.07.06.1-.03.01-.07.01-.12.01H23l4-3c1.14-.85 2-2.57 2-4V6a3.01 3.01 0 0 0-3-3H2V1c0-.55-.45-1-1-1S0 .45 0 1v52c0 .55.45 1 1 1s1-.45 1-1V31h20c.55 0 1-.45 1-1s-.45-1-1-1H2V5h24c.55 0 1 .45 1 1v23c0 .8-.57 1.93-1.2 2.4L21 35c-1.08.8-1.02 1.58-.9 1.96.13.4.55 1.04 1.9 1.04h22c.9 0 1.62-.37 1.97-1.02.34-.64.25-1.45-.25-2.2l-5.78-8.67z" fill="#fff"/></g></svg>
