<svg xmlns="http://www.w3.org/2000/svg" width="54" height="54"><defs><clipPath id="A"><path d="M0 0h54v54H0z"/></clipPath></defs><g clip-path="url(#A)"><path fill-rule="evenodd" d="M54 5v33c0 2.76-2.24 5-5 5H5c-2.76 0-5-2.24-5-5V5c0-2.76 2.24-5 5-5h44c2.76 0 5 2.24 5 5zM2 5v26h50V5a3.01 3.01 0 0 0-3-3H5a3.01 3.01 0 0 0-3 3zm50 33v-5H2v5a3.01 3.01 0 0 0 3 3h44a3.01 3.01 0 0 0 3-3zM37.53 50.8c.58.72.73 1.5.42 2.16-.32.66-1.03 1.03-1.95 1.03H18c-.92 0-1.63-.37-1.95-1.03-.3-.65-.16-1.44.42-2.16L19 47.65V45h2v3c0 .23-.08.45-.22.63L18.08 52h17.84l-2.7-3.37c-.14-.18-.22-.4-.22-.63v-3h2v2.65l2.53 3.16z" fill="#fff"/></g></svg>
