<svg xmlns="http://www.w3.org/2000/svg" width="27" height="27"><defs><clipPath id="A"><path d="M0 0h27v27H0z"/></clipPath></defs><g clip-path="url(#A)"><path fill-rule="evenodd" d="M26.88.8v25.54a.67.67 0 0 1-.67.67H.67a.67.67 0 0 1-.67-.67V.8A.67.67 0 0 1 .67.12H26.2a.67.67 0 0 1 .67.67zm-1.35.68H1.35V22.1l3.8-11.6c.12-.35.5-.55.85-.43.16.05.28.15.37.3l4.6 7.48 6.9-8.57-1.45-1.2a.67.67 0 0 1-.09-.95c.08-.1.18-.16.28-.2l2.35-.86 2.35-.87a.68.68 0 0 1 .86.41.69.69 0 0 1 .03.35l-.42 2.46-.43 2.46c-.06.37-.4.6-.78.55-.14-.02-.26-.1-.35-.18l-1.3-1.1-7.46 9.25c-.05.08-.12.14-.2.2a.67.67 0 0 1-.93-.22l-4.34-7.06L1.6 25.65h23.93V1.47zm-6.3 7.17l.03.03.95.8.23-1.3.23-1.32-1.25.46-1.26.46.84.7c.01.01.03.02.04.03l.15.13.04.03z" fill="#fff"/></g></svg>