<svg xmlns="http://www.w3.org/2000/svg" width="50" height="54"><defs><clipPath id="A"><path d="M0 0h50v54H0z"/></clipPath></defs><g clip-path="url(#A)" fill="#fff"><path d="M48.67 46.87c-.66-2.17-4.2-3.98-7.64-5.73L38.5 39.8c-.48-.27-1.1-.1-1.36.4a1 1 0 0 0 .38 1.36l2.6 1.37c2.63 1.34 6.23 3.18 6.64 4.53.85 2.8.9 3.2.9 3.97 0 .27-.06.4-.1.43-.2.2-1.15.15-1.8.13l-.95-.02h-40l-.72.01c-.74.01-1.76.03-2-.2-.06-.06-.1-.2-.1-.38l.97-3.97c.45-1.75 4.9-4.28 13.17-7.5.2-.07 2.02-.7 3.02-2.04.33-.44.24-1.07-.2-1.4s-1.07-.24-1.4.2c-.53.7-1.66 1.2-2.1 1.36-6.67 2.6-13.6 5.68-14.43 8.88l-1 4.17c-.01.07-.02.14-.02.2 0 .8.24 1.44.7 1.9.84.83 2.1.8 3.44.78.22-.01.45-.01.68-.01h40c.3 0 .6.01.88.02l.85.02c.93 0 1.78-.1 2.4-.72.46-.44.7-1.07.7-1.86 0-1.05-.1-1.63-1-4.55z"/><path fill-rule="evenodd" d="M4.82 27.52c-1.32-2.9-1.32-6.22-.01-9.1.72-1.48 2.66-2.46 4.02-2.46h.02c.26-8.87 7.32-16 15.98-16s15.7 7.13 15.97 16h.03c1.36 0 3.3.98 4 2.44 1.32 2.9 1.32 6.2.01 9.1-.72 1.48-2.66 2.46-4.02 2.46h-2c-.07 2.3-.58 7.54-3.67 9.13.01.04.02.06.03.1.38 1.6-.62 3.23-2.23 3.6l-4.86 1.16c-.23.05-.46.08-.7.08-1.4 0-2.6-.95-2.92-2.3a2.99 2.99 0 0 1 2.22-3.61l4.87-1.16c.22-.05.46-.08.7-.08.63 0 1.2.2 1.7.54 2.2-.8 2.8-5.35 2.86-7.7-.14-.08-.27-.17-.4-.3-.6-.6-.6-1.48-.6-2.32v-.1c-.14.1-.27.17-.42.23-.55 1.36-1.2 2.37-1.82 3.35l-.6.94c-.74 1.2-1.44 2.05-2.22 2.65-2.44 2.03-4.47 2.33-5.47 2.33-.23 0-.4-.02-.52-.03-2.98-.04-5.57-2.15-5.68-2.24-.85-.6-1.64-1.48-2.42-2.76l-.56-.88c-.65-1.02-1.26-2-1.8-3.33a2.7 2.7 0 0 1-.5-.27v.1c0 .84 0 1.72-.6 2.32-.35.35-.82.53-1.4.53h-3c-1.36 0-3.3-.98-4-2.44zm6.03-11.56h.98c.58 0 1.05.18 1.4.53.03.03.06.07.1.1.94-4.27 3.72-10.96 11.84-10.96 8.1 0 10.68 6.45 11.5 10.67.32-.22.7-.34 1.17-.34h.97c-.25-7.76-6.42-14-13.97-14-7.56 0-13.72 6.24-13.98 14zm29.98 2h-2.97c-.03.2-.03.58-.03.84v8.3c0 .27 0 .63.03.84l2.97.01c.7 0 1.86-.6 2.2-1.32 1.06-2.33 1.06-5.03-.01-7.4-.34-.68-1.5-1.3-2.2-1.3zm-5 6.56V20.9s-.78-.45-.78-1c0-.5-.03-12.2-10-12.2-4.13 0-7.06 2.07-8.8 6.16-1.37 3.17-1.43 6.23-1.43 6.26-.01.55-.43.85-.97.85v3.54c.3.04.6.2.78.5.14.26.4.42.5.43.4.03.77.3.9.66.5 1.4 1.1 2.35 1.8 3.44l.57.92c.63 1.03 1.24 1.73 1.93 2.2.08.06 2.26 1.83 4.55 1.83.06 0 .13 0 .2.02.06.01 1.9.26 4.47-1.88.6-.47 1.16-1.14 1.76-2.13l.62-.98c.66-1.04 1.3-2.02 1.8-3.42a.98.98 0 0 1 .8-.65c.1-.01.36-.17.5-.43.17-.3.48-.48.8-.5zm-2.6 15.13c-.1-.45-.5-.77-.97-.77-.08 0-.16.01-.23.03l-4.87 1.15a1.01 1.01 0 0 0-.74 1.21 1.03 1.03 0 0 0 1.21.74l4.86-1.16c.54-.12.87-.66.74-1.2zM6.63 26.67c.33.68 1.5 1.3 2.2 1.3h2.97c.03-.2.03-.58.03-.85v-8.3c0-.26 0-.63-.03-.84H8.83c-.7 0-1.87.6-2.2 1.3a8.97 8.97 0 0 0 .01 7.4z"/></g></svg>
