<svg xmlns="http://www.w3.org/2000/svg" width="52" height="54"><defs><clipPath id="A"><path d="M0 0h52v54H0z"/></clipPath></defs><g clip-path="url(#A)" fill-rule="evenodd" fill="#fff"><path d="M12.14 21.64c-.95-2-1.45-4.2-1.45-6.47C10.7 6.8 17.54 0 25.95 0S41.2 6.8 41.2 15.17c0 2.25-.5 4.44-1.48 6.5-4.5 10.3-12.62 19.6-12.97 20-.2.22-.46.36-.75.34-.28 0-.56-.12-.75-.33-.35-.4-8.6-9.7-13.1-20.03zm.55-6.47a13 13 0 0 0 1.27 5.64c3.6 8.27 9.88 16.1 12.03 18.65 2.13-2.57 8.3-10.38 11.9-18.62.87-1.83 1.3-3.72 1.3-5.67C39.2 7.9 33.26 2 25.95 2S12.7 7.9 12.7 15.17zm6-.17c0-4 3.25-7.24 7.24-7.24S33.2 11 33.2 15s-3.25 7.23-7.24 7.23S18.7 19 18.7 15zm2 0a5.23 5.23 0 0 0 5.24 5.23c2.9 0 5.26-2.33 5.26-5.23a5.24 5.24 0 0 0-5.24-5.24c-2.9 0-5.26 2.34-5.26 5.24zm30.92 38.78A1.05 1.05 0 0 1 51 54a1.05 1.05 0 0 1-.45-.1l-11.57-5.8-12.56 5.8c-.27.12-.57.12-.84 0l-12.56-5.8-11.57 5.8a1.01 1.01 0 0 1-1.08-.11c-.3-.25-.44-.65-.34-1.03l6-23a1.02 1.02 0 0 1 .6-.68l5-2 .74 1.86-4.53 1.8-5.32 20.38 10.03-5a1.02 1.02 0 0 1 .87-.02L26 51.9l12.58-5.8a1.02 1.02 0 0 1 .87.02l10.03 5-5.32-20.38-4.53-1.8.74-1.86 5 2c.3.12.52.37.6.68l6 23c.1.38-.04.78-.34 1.03z"/></g></svg>
