<svg xmlns="http://www.w3.org/2000/svg" width="54" height="42"><defs><clipPath id="A"><path d="M0 0h54v42H0z"/></clipPath></defs><g clip-path="url(#A)"><path fill-rule="evenodd" d="M54 5v32c0 2.76-2.24 5-5 5H5c-2.76 0-5-2.24-5-5V5c0-2.76 2.24-5 5-5h44c2.76 0 5 2.24 5 5zm-2 0a3.01 3.01 0 0 0-3-3H5a3.01 3.01 0 0 0-3 3v32a3.01 3.01 0 0 0 3 3h44a3.01 3.01 0 0 0 3-3V5zm-2.24-.65a1 1 0 0 1-.11 1.41L30.68 22.14c-1 .88-2.35 1.32-3.68 1.32s-2.67-.44-3.68-1.32L4.35 5.76a1 1 0 0 1-.11-1.41c.37-.42 1-.47 1.4-.1l18.98 16.4c1.28 1.1 3.46 1.1 4.74 0l18.98-16.4c.4-.36 1.04-.3 1.4.1z" fill="#fff"/></g></svg>
