<svg xmlns="http://www.w3.org/2000/svg" viewBox="0 0 36 54" >
	<defs>
		<clipPath clipPathUnits="userSpaceOnUse" id="cp1">
			<path d="M0 0L36 0L36 54L0 54Z" />
		</clipPath>
	</defs>
	<style>
		tspan { white-space:pre }
		.shp0 { fill: #fff }
	</style>
	<g id="Page 1" clip-path="url(#cp1)">
		<path id="Path 1" fill-rule="evenodd" class="shp0" d="M36 5L36 49C36 51.76 33.76 54 31 54L5 54C2.24 54 0 51.76 0 49L0 5C0 2.24 2.24 0 5 0L31 0C33.76 0 36 2.24 36 5ZM2 5L2 7L34 7L34 5C34 3.35 32.65 2 31 2L5 2C3.35 2 2 3.35 2 5ZM2 40L34 40L34 9L2 9L2 40ZM34 49L34 42L2 42L2 49C2 50.65 3.35 52 5 52L31 52C32.65 52 34 50.65 34 49ZM21 47C21 47.55 20.55 48 20 48L16 48C15.45 48 15 47.55 15 47C15 46.45 15.45 46 16 46L20 46C20.55 46 21 46.45 21 47Z" />
	</g>
</svg>
